# xmcd
#
# Track frame offsets:
#	150
#	20483
#	42457
#	63143
#	82269
#	96065
#	120127
#	140442
#	159189
#	178762
#	206789
#	227033
#	253917
#
# Disc length: 3699
#
# Revision: 6
# Processed by: cddbd v1.5.1PL0 Copyright (c) Steve Scherf et al.
# Submitted via: CDex 1.40Release
# Normalized: r5:TRMNUM
#
DISCID=ac0e710d
DTITLE=John Mayall and Friends - Along For The Ride
DYEAR=2001
DGENRE=Blues
TTITLE0=A World Of Hurt
TTITLE1=Along For The Ride
TTITLE2=Put It Right Back
TTITLE3=That's Why I Love You So
TTITLE4=Yo Yo Man
TTITLE5=If I Don't Get Home
TTITLE6=Testify
TTITLE7=Early In The Morning
TTITLE8=Something About My Baby
TTITLE9=So Many Roads
TTITLE10=World War Blues
TTITLE11=California
TTITLE12=She Don't Play By The Rules
EXTD=(c)2001 Eagle Records\nFeaturning Gary Moore, Peter Green, Mich Fleetwood, Mick Taylor, Billy F Gibbons, Jonny Lang, Otis Rush, Steve Chopper, Joe Yuele, Steve Miller, Andy Fairweather Low, Dick Heckstall-Smith, Buddy Whittington, Shan
EXTD=non Curfman, Red Holloway, Billy Preston, Tom Canning, Jeff Healey, John McVide, Chris Rea YEAR: 2001 ID3G: 0
EXTT0=m Canning, Jeff Healey, John McVide, Chris Rea\n
EXTT1=
EXTT2=
EXTT3=
EXTT4=
EXTT5=
EXTT6=
EXTT7=
EXTT8=
EXTT9=
EXTT10=
EXTT11=
EXTT12=
PLAYORDER=
